<svg fill="none" height="4096" viewBox="0 0 4096 4096" width="4096" xmlns="http://www.w3.org/2000/svg"><circle cx="2048" cy="2048" fill="#fff" r="2048"/><g clip-rule="evenodd" fill="#000" fill-rule="evenodd"><path d="m3243.21 1036.38c-489.78 76.62-864.48 500.38-864.48 1011.65 0 511.21 374.6 934.92 864.27 1011.62-51.98 8.13-105.26 12.35-159.52 12.35-565.54 0-1024-458.46-1024-1024s458.46-1024 1024-1024c54.33 0 107.68 4.23 159.73 12.38z"/><path d="m853 1036.38c489.77 76.62 864.48 500.38 864.48 1011.65 0 511.21-374.6 934.92-864.272 1011.62 51.982 8.13 105.26 12.35 159.522 12.35 565.54 0 1024-458.46 1024-1024s-458.46-1024-1024-1024c-54.334 0-107.682 4.23-159.73 12.38z"/></g></svg>