<svg width="2391" height="2048" viewBox="0 0 2391 2048" fill="none" xmlns="http://www.w3.org/2000/svg">
<path fill-rule="evenodd" clip-rule="evenodd" d="M2390.21 12.3847C1900.43 88.9979 1525.73 512.757 1525.73 1024.03C1525.73 1535.24 1900.33 1958.95 2390 2035.65C2338.02 2043.78 2284.74 2048 2230.48 2048C1664.94 2048 1206.48 1589.54 1206.48 1024C1206.48 458.46 1664.94 0 2230.48 0C2284.81 0 2338.16 4.23213 2390.21 12.3847Z" fill="white"/>
<path fill-rule="evenodd" clip-rule="evenodd" d="M0.00012207 12.3847C489.774 88.9979 864.476 512.757 864.476 1024.03C864.476 1535.24 489.88 1958.95 0.207764 2035.65C52.1899 2043.78 105.468 2048 159.732 2048C725.272 2048 1183.73 1589.54 1183.73 1024C1183.73 458.46 725.272 0 159.732 0C105.396 0 52.048 4.23213 0.00012207 12.3847Z" fill="white"/>
</svg>
